<?xml version="1.0" standalone="no"?>
<svg xmlns:xlink="http://www.w3.org/1999/xlink" xmlns="http://www.w3.org/2000/svg" class="vtree" width="960" height="800"><style>
    .vtree-node text { font: 14px sans-serif; }
    .vtree-link { fill: none; stroke: #888; stroke-width: 2px; }
    .vtree-table { stroke-width: 2px; stroke: steelblue; }
    path.vtree-table { fill: white; }
    g.vtree-node rect { fill: white; stroke: black; stroke-width: 1px; }
    g.vtree-node rect.number-text { fill: #d8f0ed; }
    g.vtree-node rect.string-text { fill: #e7f0db; }
    g.vtree-node rect.boolean-text { fill: #e1d8f0; }
    g.vtree-node rect.null-text { fill: #888; }
</style><g class="vtree-root" transform="translate(148.3802080045189,316.21932443474174)scale(0.5263155773547309)"><g class="vtree-node" transform="translate(480,121)"><g class="vtree-node" transform="translate(-152,0)"><path class="vtree-link" d="M152,86C152,182.5 792,182.5 792,279"/><path class="vtree-link" d="M152,86C152,188.5 554,188.5 554,291"/><path class="vtree-link" d="M152,86C152,230.5 233,230.5 233,375"/><path class="vtree-link" d="M152,86C152,200.5 -63,200.5 -63,315"/><path class="vtree-link" d="M152,86C152,188 -489,188 -489,290"/><g class="vtree-node" transform="translate(-382,221)"><path class="vtree-link" d="M-107,68C-107,68 105,68 105,68"/><g class="vtree-node" transform="translate(-207,0)"><g transform="translate(0,20)"><g transform="translate(0,0)"><rect class="string-text" x="0" y="0" width="47" height="24"/><text x="4" y="20">name</text></g><g transform="translate(47,0)"><rect class="string-text" x="0" y="0" width="153" height="24"/><text x="4" y="20">Ola Norman</text></g><g transform="translate(0,24)"><rect class="string-text" x="0" y="0" width="47" height="25"/><text x="4" y="20">title</text></g><g transform="translate(47,24)"><rect class="string-text" x="0" y="0" width="153" height="25"/><text x="4" y="21">Regionleder</text></g><g transform="translate(0,49)"><rect class="string-text" x="0" y="0" width="47" height="24"/><text x="4" y="20">email</text></g><g transform="translate(47,49)"><rect class="string-text" x="0" y="0" width="153" height="24"/><text x="4" y="20">ola.normann@test.com</text></g><g transform="translate(0,73)"><rect class="string-text" x="0" y="0" width="47" height="24"/><text x="4" y="20">phone</text></g><g transform="translate(47,73)"><rect class="string-text" x="0" y="0" width="153" height="24"/><text x="4" y="20">+47 001 00 002</text></g></g><g><text x="100" y="16" text-anchor="middle">contactList[0]</text></g></g><g class="vtree-node" transform="translate(3,0)"><g transform="translate(0,20)"><g transform="translate(0,0)"><rect class="string-text" x="0" y="0" width="47" height="24"/><text x="4" y="20">name</text></g><g transform="translate(47,0)"><rect class="string-text" x="0" y="0" width="157" height="24"/><text x="4" y="20">Kari Normann</text></g><g transform="translate(0,24)"><rect class="string-text" x="0" y="0" width="47" height="24"/><text x="4" y="20">title</text></g><g transform="translate(47,24)"><rect class="string-text" x="0" y="0" width="157" height="24"/><text x="4" y="20">Prosjektleder</text></g><g transform="translate(0,48)"><rect class="string-text" x="0" y="0" width="47" height="24"/><text x="4" y="20">email</text></g><g transform="translate(47,48)"><rect class="string-text" x="0" y="0" width="157" height="24"/><text x="4" y="20">kari.normann@test.com</text></g><g transform="translate(0,72)"><rect class="string-text" x="0" y="0" width="47" height="24"/><text x="4" y="20">phone</text></g><g transform="translate(47,72)"><rect class="string-text" x="0" y="0" width="157" height="24"/><text x="4" y="20">+47 003 00 004</text></g></g><g><text x="102" y="16" text-anchor="middle">contactList[1]</text></g></g></g><g class="vtree-node" transform="translate(-63,221)"><g class="vtree-node" transform="translate(-102,0)"><g transform="translate(0,20)"><g transform="translate(0,0)"><rect class="string-text" x="0" y="0" width="79" height="25"/><text x="4" y="20">address</text></g><g transform="translate(79,0)"><rect class="string-text" x="0" y="0" width="124" height="25"/><text x="4" y="21">Magnus Sørlis veg</text></g><g transform="translate(0,25)"><rect class="string-text" x="0" y="0" width="79" height="24"/><text x="4" y="20">postalCode</text></g><g transform="translate(79,25)"><rect class="string-text" x="0" y="0" width="124" height="24"/><text x="4" y="20">1920</text></g><g transform="translate(0,49)"><rect class="string-text" x="0" y="0" width="79" height="25"/><text x="4" y="21">country</text></g><g transform="translate(79,49)"><rect class="string-text" x="0" y="0" width="124" height="25"/><text x="4" y="20">NORGE</text></g><g transform="translate(0,74)"><rect class="string-text" x="0" y="0" width="79" height="25"/><text x="4" y="21">county</text></g><g transform="translate(79,74)"><rect class="string-text" x="0" y="0" width="124" height="25"/><text x="4" y="20">VIKEN</text></g><g transform="translate(0,99)"><rect class="string-text" x="0" y="0" width="79" height="24"/><text x="4" y="20">municipal</text></g><g transform="translate(79,99)"><rect class="string-text" x="0" y="0" width="124" height="24"/><text x="4" y="20">LILLESTRØM</text></g><g transform="translate(0,123)"><rect class="string-text" x="0" y="0" width="79" height="25"/><text x="4" y="21">city</text></g><g transform="translate(79,123)"><rect class="string-text" x="0" y="0" width="124" height="25"/><text x="4" y="20">SØRUMSAND</text></g></g><g><text x="102" y="16" text-anchor="middle">locationList[0]</text></g></g></g><g class="vtree-node" transform="translate(48,221)"><g transform="translate(0,20)"><g transform="translate(0,0)"><rect class="string-text" x="0" y="0" width="134" height="24"/><text x="4" y="20">extent</text></g><g transform="translate(134,0)"><rect class="string-text" x="0" y="0" width="235" height="24"/><text x="4" y="20">Heltid</text></g><g transform="translate(0,24)"><rect class="string-text" x="0" y="0" width="134" height="25"/><text x="4" y="21">employerhomepage</text></g><g transform="translate(134,24)"><rect class="string-text" x="0" y="0" width="235" height="25"/><text x="4" y="20">http://www.sorumsand.norlandiaba...</text></g><g transform="translate(0,49)"><rect class="string-text" x="0" y="0" width="134" height="24"/><text x="4" y="20">applicationdue</text></g><g transform="translate(134,49)"><rect class="string-text" x="0" y="0" width="235" height="24"/><text x="4" y="20">24.02.2019</text></g><g transform="translate(0,73)"><rect class="string-text" x="0" y="0" width="134" height="25"/><text x="4" y="21">keywords</text></g><g transform="translate(134,73)"><rect class="string-text" x="0" y="0" width="235" height="25"/><text x="4" y="21">Barnehage,daglig,leder,styrer</text></g><g transform="translate(0,98)"><rect class="string-text" x="0" y="0" width="134" height="25"/><text x="4" y="21">engagementtype</text></g><g transform="translate(134,98)"><rect class="string-text" x="0" y="0" width="235" height="25"/><text x="4" y="20">Fast</text></g><g transform="translate(0,123)"><rect class="string-text" x="0" y="0" width="134" height="25"/><text x="4" y="21">employerdescription</text></g><g transform="translate(134,123)"><rect class="string-text" x="0" y="0" width="235" height="25"/><text x="4" y="21">&lt;p&gt;I Norlandia barnehagene vil v...</text></g><g transform="translate(0,148)"><rect class="string-text" x="0" y="0" width="134" height="24"/><text x="4" y="20">starttime</text></g><g transform="translate(134,148)"><rect class="string-text" x="0" y="0" width="235" height="24"/><text x="4" y="20">01.05.2019</text></g><g transform="translate(0,172)"><rect class="string-text" x="0" y="0" width="134" height="24"/><text x="4" y="20">applicationemail</text></g><g transform="translate(134,172)"><rect class="string-text" x="0" y="0" width="235" height="24"/><text x="4" y="20">ola.normann@test.com</text></g><g transform="translate(0,196)"><rect class="string-text" x="0" y="0" width="134" height="24"/><text x="4" y="20">applicationurl</text></g><g transform="translate(134,196)"><rect class="string-text" x="0" y="0" width="235" height="24"/><text x="4" y="20">https://url.to.applicationform/r...</text></g><g transform="translate(0,220)"><rect class="string-text" x="0" y="0" width="134" height="24"/><text x="4" y="20">sector</text></g><g transform="translate(134,220)"><rect class="string-text" x="0" y="0" width="235" height="24"/><text x="4" y="20">Privat</text></g><g transform="translate(0,244)"><rect class="string-text" x="0" y="0" width="134" height="24"/><text x="4" y="20">applicationlabel</text></g><g transform="translate(134,244)"><rect class="string-text" x="0" y="0" width="235" height="24"/><text x="4" y="20">Søknad Sørumsand</text></g></g><g><text x="185" y="16" text-anchor="middle">properties</text></g></g><g class="vtree-node" transform="translate(427,221)"><path class="vtree-link" d="M127,70C127,166.5 127,166.5 127,263"/><g class="vtree-node" transform="translate(41,169)"><g transform="translate(0,20)"><g transform="translate(0,0)"><rect class="string-text" x="0" y="0" width="79" height="25"/><text x="4" y="20">address</text></g><g transform="translate(79,0)"><rect class="string-text" x="0" y="0" width="93" height="25"/><text x="4" y="21">Sannergata 2</text></g><g transform="translate(0,25)"><rect class="string-text" x="0" y="0" width="79" height="24"/><text x="4" y="20">postalCode</text></g><g transform="translate(79,25)"><rect class="string-text" x="0" y="0" width="93" height="24"/><text x="4" y="20">0566</text></g><g transform="translate(0,49)"><rect class="string-text" x="0" y="0" width="79" height="25"/><text x="4" y="21">country</text></g><g transform="translate(79,49)"><rect class="string-text" x="0" y="0" width="93" height="25"/><text x="4" y="21">Norge</text></g><g transform="translate(0,74)"><rect class="string-text" x="0" y="0" width="79" height="25"/><text x="4" y="21">county</text></g><g transform="translate(79,74)"><rect class="string-text" x="0" y="0" width="93" height="25"/><text x="4" y="20">Oslo</text></g><g transform="translate(0,99)"><rect class="string-text" x="0" y="0" width="79" height="24"/><text x="4" y="20">municipal</text></g><g transform="translate(79,99)"><rect class="string-text" x="0" y="0" width="93" height="24"/><text x="4" y="20">Oslo</text></g><g transform="translate(0,123)"><rect class="string-text" x="0" y="0" width="79" height="25"/><text x="4" y="21">city</text></g><g transform="translate(79,123)"><rect class="string-text" x="0" y="0" width="93" height="25"/><text x="4" y="20">Oslo</text></g></g><g><text x="86" y="16" text-anchor="middle">location</text></g></g><g transform="translate(0,21)"><g transform="translate(0,0)"><rect class="string-text" x="0" y="0" width="101" height="24"/><text x="4" y="20">id</text></g><g transform="translate(101,0)"><rect class="number-text" x="0" y="0" width="152" height="24"/><text x="4" y="20">255533</text></g><g transform="translate(0,24)"><rect class="string-text" x="0" y="0" width="101" height="24"/><text x="4" y="20">reference</text></g><g transform="translate(101,24)"><rect class="string-text" x="0" y="0" width="152" height="24"/><text x="4" y="20">232151232</text></g><g transform="translate(0,48)"><rect class="string-text" x="0" y="0" width="101" height="25"/><text x="4" y="20">businessName</text></g><g transform="translate(101,48)"><rect class="string-text" x="0" y="0" width="152" height="25"/><text x="4" y="21">Sørumsand barnehage</text></g><g transform="translate(0,73)"><rect class="string-text" x="0" y="0" width="101" height="25"/><text x="4" y="21">orgnr</text></g><g transform="translate(101,73)"><rect class="string-text" x="0" y="0" width="152" height="25"/><text x="4" y="20">989012088</text></g></g><g><text x="127" y="17" text-anchor="middle">employer</text></g></g><g class="vtree-node" transform="translate(792,221)"><g class="vtree-node" transform="translate(-102,0)"><g transform="translate(0,21)"><g transform="translate(0,0)"><rect class="string-text" x="0" y="0" width="93" height="24"/><text x="4" y="20">code</text></g><g transform="translate(93,0)"><rect class="string-text" x="0" y="0" width="110" height="24"/><text x="4" y="20">234204</text></g><g transform="translate(0,24)"><rect class="string-text" x="0" y="0" width="93" height="25"/><text x="4" y="21">categoryType</text></g><g transform="translate(93,24)"><rect class="string-text" x="0" y="0" width="110" height="25"/><text x="4" y="20">STYRK08</text></g><g transform="translate(0,49)"><rect class="string-text" x="0" y="0" width="93" height="25"/><text x="4" y="20">name</text></g><g transform="translate(93,49)"><rect class="string-text" x="0" y="0" width="110" height="25"/><text x="4" y="21">Barnehagelærer</text></g></g><g><text x="102" y="17" text-anchor="middle">categoryList[0]</text></g></g></g><g transform="translate(0,0)"><rect class="string-text" x="0" y="0" width="68" height="24"/><text x="4" y="20">reference</text></g><g transform="translate(68,0)"><rect class="string-text" x="0" y="0" width="235" height="24"/><text x="4" y="20">140095810</text></g><g transform="translate(0,24)"><rect class="string-text" x="0" y="0" width="68" height="24"/><text x="4" y="20">positions</text></g><g transform="translate(68,24)"><rect class="number-text" x="0" y="0" width="235" height="24"/><text x="4" y="20">1</text></g><g transform="translate(0,48)"><rect class="string-text" x="0" y="0" width="68" height="25"/><text x="4" y="20">title</text></g><g transform="translate(68,48)"><rect class="string-text" x="0" y="0" width="235" height="25"/><text x="4" y="21">Ønsker du å lede en moderne og v...</text></g><g transform="translate(0,73)"><rect class="string-text" x="0" y="0" width="68" height="25"/><text x="4" y="20">adText</text></g><g transform="translate(68,73)"><rect class="string-text" x="0" y="0" width="235" height="25"/><text x="4" y="21">&lt;p&gt;Nå har du en unik mulighet ti...</text></g><g transform="translate(0,98)"><rect class="string-text" x="0" y="0" width="68" height="25"/><text x="4" y="21">privacy</text></g><g transform="translate(68,98)"><rect class="string-text" x="0" y="0" width="235" height="25"/><text x="4" y="20">SHOW_ALL</text></g><g transform="translate(0,123)"><rect class="string-text" x="0" y="0" width="68" height="24"/><text x="4" y="20">published</text></g><g transform="translate(68,123)"><rect class="string-text" x="0" y="0" width="235" height="24"/><text x="4" y="20">2019-02-13T12:59:26</text></g><g transform="translate(0,147)"><rect class="string-text" x="0" y="0" width="68" height="24"/><text x="4" y="20">expires</text></g><g transform="translate(68,147)"><rect class="string-text" x="0" y="0" width="235" height="24"/>
    <text x="4" y="20">2019-02-24T00:00:00</text></g></g></g></g>
</svg>